grf
version=1
nRows=11
nColumns=37
inDegrees=no
endheader
time	ground_force_1_vx	ground_force_1_vy	ground_force_1_vz	ground_force_1_px	ground_force_1_py	ground_force_1_pz	ground_moment_1_mx	ground_moment_1_my	ground_moment_1_mz	ground_force_2_vx	ground_force_2_vy	ground_force_2_vz	ground_force_2_px	ground_force_2_py	ground_force_2_pz	ground_moment_2_mx	ground_moment_2_my	ground_moment_2_mz	ground_force_3_vx	ground_force_3_vy	ground_force_3_vz	ground_force_3_px	ground_force_3_py	ground_force_3_pz	ground_moment_3_mx	ground_moment_3_my	ground_moment_3_mz	ground_force_4_vx	ground_force_4_vy	ground_force_4_vz	ground_force_4_px	ground_force_4_py	ground_force_4_pz	ground_moment_4_mx	ground_moment_4_my	ground_moment_4_mz
      2.00000000	      0.00000000	     -0.00000000	      0.00000000	      0.00000000	      0.00000000	      0.00000000	      0.00000000	      0.00000000	      0.00000000	     10.78984451	     88.77850342	   -501.47885132	   -328.12000712	  -1193.83300947	      0.00000000	      0.00000000	      0.00000000	   3738.36354206	     -1.39142044	    -84.09152210	   -465.10662842	   -318.44193218	   -595.40214032	      0.00000000	      0.00000000	     -0.00000000	  -7416.07471464	      0.00000000	     -0.00000000	      0.00000000	      0.00000000	      0.00000000	      0.00000000	      0.00000000	      0.00000000	      0.00000000
      2.01000000	      0.00000000	     -0.00000000	      0.00000000	      0.00000000	      0.00000000	      0.00000000	      0.00000000	      0.00000000	      0.00000000	     12.83730221	     86.53662109	   -502.68209839	   -328.25640948	  -1193.39599701	      0.00000000	      0.00000000	      0.00000000	   3830.74942852	      0.88710057	    -83.27831276	   -467.84530640	   -318.93306214	   -596.14531070	      0.00000000	      0.00000000	     -0.00000000	  -7369.11931268	      0.00000000	     -0.00000000	      0.00000000	      0.00000000	      0.00000000	      0.00000000	      0.00000000	      0.00000000	      0.00000000
      2.02000000	      0.00000000	     -0.00000000	      0.00000000	      0.00000000	      0.00000000	      0.00000000	      0.00000000	      0.00000000	      0.00000000	     13.70786476	     84.85650635	   -500.43872070	   -328.40250230	  -1194.10588414	      0.00000000	      0.00000000	      0.00000000	   3985.85705952	      2.31087200	    -82.74865743	   -469.69549561	   -318.70156162	   -597.31680193	      0.00000000	      0.00000000	     -0.00000000	  -7303.24747374	      0.00000000	     -0.00000000	      0.00000000	      0.00000000	      0.00000000	      0.00000000	      0.00000000	      0.00000000	      0.00000000
      2.03000000	      0.00000000	     -0.00000000	      0.00000000	      0.00000000	      0.00000000	      0.00000000	      0.00000000	      0.00000000	      0.00000000	     14.30338192	     82.69181824	   -493.81274414	   -327.87244303	  -1194.28880675	      0.00000000	      0.00000000	      0.00000000	   4025.07066056	      3.64996740	    -82.22323640	   -478.98550415	   -319.36955807	   -595.45819398	      0.00000000	      0.00000000	     -0.00000000	  -7389.50830822	      0.00000000	     -0.00000000	      0.00000000	      0.00000000	      0.00000000	      0.00000000	      0.00000000	      0.00000000	      0.00000000
      2.04000000	      0.00000000	     -0.00000000	      0.00000000	      0.00000000	      0.00000000	      0.00000000	      0.00000000	      0.00000000	      0.00000000	     16.22389221	     79.07521820	   -489.92617798	   -326.98521985	  -1194.15510106	      0.00000000	      0.00000000	      0.00000000	   4298.66775053	      4.88326163	    -82.41660352	   -481.51296997	   -319.12478766	   -596.33250523	      0.00000000	      0.00000000	     -0.00000000	  -7407.66325074	      0.00000000	     -0.00000000	      0.00000000	      0.00000000	      0.00000000	      0.00000000	      0.00000000	      0.00000000	      0.00000000
      2.05000000	      0.00000000	     -0.00000000	      0.00000000	      0.00000000	      0.00000000	      0.00000000	      0.00000000	      0.00000000	      0.00000000	     16.85676765	     78.43074036	   -493.40829468	   -326.28150923	  -1194.49224082	      0.00000000	      0.00000000	      0.00000000	   4316.38485201	      5.50817052	    -82.74934435	   -486.41610718	   -319.42341456	   -596.53692589	      0.00000000	      0.00000000	     -0.00000000	  -7361.18007878	      0.00000000	     -0.00000000	      0.00000000	      0.00000000	      0.00000000	      0.00000000	      0.00000000	      0.00000000	      0.00000000
      2.06000000	      0.00000000	     -0.00000000	      0.00000000	      0.00000000	      0.00000000	      0.00000000	      0.00000000	      0.00000000	      0.00000000	     18.90487289	     77.19081116	   -499.38107300	   -326.31753430	  -1194.24718165	      0.00000000	      0.00000000	      0.00000000	   4438.73001567	      6.36759707	    -82.22749384	   -490.57345581	   -319.19735014	   -596.86248157	      0.00000000	      0.00000000	     -0.00000000	  -7431.17984729	      0.00000000	     -0.00000000	      0.00000000	      0.00000000	      0.00000000	      0.00000000	      0.00000000	      0.00000000	      0.00000000
      2.07000000	      0.00000000	     -0.00000000	      0.00000000	      0.00000000	      0.00000000	      0.00000000	      0.00000000	      0.00000000	      0.00000000	     20.08363152	     76.57427979	   -500.48571777	   -326.13477971	  -1194.27168895	      0.00000000	      0.00000000	      0.00000000	   4448.24546638	      7.18177312	    -82.55056825	   -497.49627686	   -318.94779712	   -596.59465697	      0.00000000	      0.00000000	     -0.00000000	  -7697.76176828	      0.00000000	     -0.00000000	      0.00000000	      0.00000000	      0.00000000	      0.00000000	      0.00000000	      0.00000000	      0.00000000
      2.08000000	      0.00000000	     -0.00000000	      0.00000000	      0.00000000	      0.00000000	      0.00000000	      0.00000000	      0.00000000	      0.00000000	     20.49284363	     76.12467194	   -506.90002441	   -324.94285381	  -1194.67413273	      0.00000000	      0.00000000	      0.00000000	   4521.67027924	      7.71413989	    -82.37472602	   -503.44757080	   -318.65739684	   -596.92634230	      0.00000000	      0.00000000	     -0.00000000	  -7461.65596681	      0.00000000	     -0.00000000	      0.00000000	      0.00000000	      0.00000000	      0.00000000	      0.00000000	      0.00000000	      0.00000000
      2.09000000	      0.00000000	     -0.00000000	      0.00000000	      0.00000000	      0.00000000	      0.00000000	      0.00000000	      0.00000000	      0.00000000	     19.80826569	     75.22605896	   -511.39056396	   -324.12656113	  -1194.72365149	      0.00000000	      0.00000000	      0.00000000	   4587.63930263	      8.15781448	    -82.13206553	   -507.44378662	   -318.66632774	   -597.92851425	      0.00000000	      0.00000000	     -0.00000000	  -7650.69725234	      0.00000000	     -0.00000000	      0.00000000	      0.00000000	      0.00000000	      0.00000000	      0.00000000	      0.00000000	      0.00000000
      2.10000000	      0.00000000	     -0.00000000	      0.00000000	      0.00000000	      0.00000000	      0.00000000	      0.00000000	      0.00000000	      0.00000000	     18.38075638	     75.93910217	   -513.91711426	   -324.01557621	  -1194.98551167	      0.00000000	      0.00000000	      0.00000000	   4631.47394568	      8.41036654	    -81.76539685	   -511.53414917	   -317.49592371	   -597.38793153	      0.00000000	      0.00000000	     -0.00000000	  -7815.66622812	      0.00000000	     -0.00000000	      0.00000000	      0.00000000	      0.00000000	      0.00000000	      0.00000000	      0.00000000	      0.00000000
